<svg width="104" height="103" viewBox="0 0 104 103" fill="none" xmlns="http://www.w3.org/2000/svg">
<path d="M75.2504 31.4919C75.2504 47.1606 56.6373 56.4146 51.2742 58.7281C50.3278 59.1487 49.2762 59.1487 48.3298 58.7281C42.8615 56.4146 24.3535 47.1606 24.3535 31.4919C24.3535 23.605 30.5579 17.2955 38.1294 17.2955C43.0718 17.2955 47.3833 20.0296 49.9072 24.0257C52.3258 20.0296 56.6373 17.2955 61.6849 17.2955C69.0461 17.4007 75.2504 23.7102 75.2504 31.4919Z" stroke="#C84577" stroke-miterlimit="10"/>
<path d="M32.7663 48.4225C32.7663 48.4225 47.4885 44.2162 62.4211 32.0177C62.8417 32.4384 63.3675 32.9642 63.3675 32.9642C63.3675 32.9642 54.1135 42.4285 38.3397 48.8432C41.8099 48.0019 48.9607 46.109 64.5242 34.4364C65.1552 35.0673 65.4707 35.3828 65.4707 35.3828C65.4707 35.3828 58.3199 44.0058 41.0738 51.1566C41.8099 51.6824 51.3794 49.0535 66.6274 36.855C67.2584 37.9066 67.679 38.0118 67.679 38.0118C67.679 38.0118 59.056 48.107 41.7048 55.0475C37.6036 52.9443 32.7663 48.4225 32.7663 48.4225Z" fill="#C84577"/>
<path d="M29.927 45.5833C29.927 45.5833 35.2901 38.6428 46.7524 32.2281C47.804 33.5952 51.2742 38.5376 51.2742 38.5376L50.4329 39.3789L46.0163 35.2777L49.171 39.9047L47.0679 41.3769L42.8615 36.3293C42.8615 36.3293 44.2286 39.4841 46.1214 41.9027C44.9647 42.6388 44.3337 43.1646 44.3337 43.1646L39.9171 38.0118C39.9171 38.0118 41.5996 41.1666 43.177 43.4801C41.7048 44.5317 41.179 44.6368 41.179 44.6368L36.9726 39.5892L37.3932 40.746L34.0282 44.111L37.8139 41.6924L38.6551 42.9543L34.8694 45.6884L39.1809 43.6904L40.0222 45.0575L33.292 48.8432C33.1869 48.8432 31.0837 46.9503 29.927 45.5833Z" fill="#C84577"/>
<path d="M25.5103 26.234C25.5103 26.234 27.0877 27.1804 27.1928 27.8114C26.2464 28.6527 25.6155 29.4939 24.8793 31.1765C25.9309 30.23 26.9825 28.7578 27.7186 28.3372C28.1393 28.7578 28.6651 29.3888 28.6651 29.3888C28.6651 29.3888 26.2464 31.9126 25.9309 33.8054C27.1928 32.1229 29.296 30.3352 29.296 30.3352L30.2424 31.7023C30.2424 31.7023 28.3496 33.49 25.7206 36.6447C28.8754 33.7003 35.0798 27.8114 41.179 25.2876C41.5996 25.8134 41.7048 26.0237 41.7048 26.0237C41.7048 26.0237 32.6611 31.5971 28.0341 39.2737C31.6095 35.3828 38.55 29.0733 42.7563 27.1804C43.3873 28.0217 43.5976 28.3372 43.5976 28.3372C43.5976 28.3372 35.8159 33.2796 30.0321 40.9562C32.8714 38.5376 37.8139 32.9642 44.7544 29.5991C45.3853 30.4404 45.806 30.9661 45.806 30.9661C45.806 30.9661 33.292 39.484 31.7147 44.2162C30.4528 45.8987 29.6115 45.5832 29.6115 45.5832C29.6115 45.5832 20.3575 34.5415 25.5103 26.234Z" fill="#C84577"/>
<path d="M25.5103 25.8134C25.5103 25.8134 29.0857 28.1269 30.7682 30.6507C31.3992 29.8094 32.2405 28.9681 32.2405 28.9681C32.2405 28.9681 29.4012 25.0773 27.8238 24.1308C29.6115 24.9721 30.1373 25.2876 33.1869 28.3372C34.0282 27.6011 34.554 27.0753 34.554 27.0753C34.554 27.0753 32.5559 23.3947 30.2424 21.7122C31.925 22.4483 33.923 24.3412 35.5004 26.5495C36.1313 26.1289 37.2881 25.2876 37.2881 25.2876C37.2881 25.2876 34.3436 21.1864 32.8714 20.0296C34.0282 20.5554 37.4984 23.4999 38.2345 24.867C39.2861 24.1308 39.6016 23.7102 39.6016 23.7102C39.6016 23.7102 38.0242 22.1328 36.552 20.7658C38.7603 22.3431 42.546 24.236 52.0103 37.5912C52.8516 37.1705 53.3774 36.6447 53.3774 36.6447C53.3774 36.6447 46.9627 26.3392 40.9686 21.0812C43.8079 23.1844 46.8575 25.1824 54.8496 35.8035C55.3754 35.3828 55.796 35.0674 55.796 35.0674L49.6968 24.4463C49.6968 24.4463 46.5421 17.8213 36.8674 17.5058C34.3436 17.8213 27.7186 19.2935 25.5103 25.8134Z" fill="#C84577"/>
<path d="M49.6968 24.9721L57.3734 34.3312L58.8457 32.9642L51.8 25.4979C51.8 25.4979 53.798 21.9225 56.9528 19.7142C55.9012 21.1864 53.9032 24.1308 53.0619 25.9185C53.798 26.4443 54.429 26.9701 54.429 26.9701C54.429 26.9701 57.1631 21.3967 61.4746 17.5058C60.1076 17.7161 53.3774 17.4007 49.6968 24.9721Z" fill="#C84577"/>
<path d="M55.4806 27.9165L60.0024 32.1229L61.054 30.7558L56.2167 26.6546L55.4806 27.9165Z" fill="#C84577"/>
<path d="M70.6234 43.6904C70.6234 43.6904 66.6274 32.9642 56.6373 25.1824C57.058 24.5515 57.4786 23.7102 57.4786 23.7102C57.4786 23.7102 65.7861 29.2836 71.2544 39.1686C70.2028 36.3293 65.05 27.7062 58.3199 22.3431C59.056 21.2916 59.2663 20.8709 59.2663 20.8709C59.2663 20.8709 67.3635 26.234 72.8318 36.2241C71.5699 32.9642 68.31 25.3927 59.8972 20.0296C60.3179 19.1884 60.5282 18.9781 60.5282 18.9781C60.5282 18.9781 69.7822 24.9721 73.3576 32.4384C72.4112 30.0197 71.9905 29.1785 70.6234 27.4959C71.1492 26.865 71.4647 26.4443 71.4647 26.4443L73.5679 29.0733C73.5679 29.0733 72.5163 26.5495 71.3596 25.8134C71.8854 24.9721 72.7266 24.1308 72.7266 24.1308C72.7266 24.1308 79.2465 33.49 70.6234 43.6904Z" fill="#C84577"/>
<path d="M69.0461 39.3789C69.0461 39.3789 67.4687 41.6924 56.427 48.5277C56.8476 49.369 57.1631 49.8948 57.1631 49.8948C57.1631 49.8948 61.4746 48.0019 62.3159 47.1606C58.425 50.3154 57.5837 50.736 57.5837 50.736L59.7921 54.3114C59.7921 54.3114 68.5203 47.6864 71.5699 43.6904C70.2028 40.9563 69.0461 39.3789 69.0461 39.3789Z" fill="#C84577"/>
<path d="M59.6869 53.996L55.3754 49.0535L53.3774 49.9999L55.5857 53.8908L52.5361 50.6309L50.5381 51.367L52.8516 55.363L49.3814 51.7876L47.6988 52.6289L50.1175 56.6249L46.3317 52.5237L41.4944 54.9424C41.4944 54.9424 49.0659 61.1468 51.9052 58.2023C56.6373 55.994 59.6869 53.996 59.6869 53.996Z" fill="#C84577"/>
<path d="M61.054 17.4007L65.5758 21.3967L67.5738 19.8193L65.9965 21.7122L67.1532 22.9741L69.1512 21.2915L67.7842 23.7102L68.8358 25.1824L70.8338 23.0792L69.4667 25.6031L70.6234 27.1804L72.8318 24.1308C72.7266 24.1308 69.7822 17.5058 61.054 17.4007Z" fill="#C84577"/>
<path d="M64.4191 43.0594L64.7346 44.5317C64.7346 44.5317 64.1036 53.365 67.4687 63.4603C68.4151 65.9841 69.1512 67.9821 71.0441 67.8769C71.8854 67.0357 72.6215 67.5615 72.2008 62.0932C71.5699 58.7281 69.4667 47.4761 66.4171 44.0059C65.9965 42.3233 65.8913 42.0078 65.8913 42.0078L64.4191 43.0594Z" fill="#574349"/>
<path d="M56.2167 3.83516C50.7484 1.10103 45.3853 0.680396 42.6512 3.09905C42.3357 3.41453 40.9687 4.67643 40.8635 6.56929C40.7583 9.19827 43.177 11.0911 43.7028 11.5118C45.806 13.0891 48.3298 13.6149 54.7445 13.1943C63.4726 12.6685 63.8933 11.5118 66.9429 12.0376C74.304 13.2995 78.8258 21.7122 79.3516 22.7638C84.7147 33.1745 80.6135 47.7916 72.0957 56.4146C62.4211 66.1944 46.8575 68.4027 34.8694 62.3035C25.1948 57.2559 20.042 47.8967 18.3595 40.5356C17.7285 37.5912 16.6769 32.859 18.675 27.4959C19.2008 26.0237 21.3039 20.4503 27.1928 17.7161C28.3496 17.1903 31.5044 16.1388 35.6055 16.3491C39.9171 16.5594 43.9131 18.8729 44.9647 19.7142" stroke="#C84577" stroke-width="1.5" stroke-miterlimit="10" stroke-linecap="round"/>
<path d="M56.9528 9.40859C56.9528 9.40859 58.0044 8.25184 57.2683 7.20025C56.8476 6.98994 56.1115 6.5693 55.6909 7.72605C55.796 8.04153 55.5857 7.83121 55.796 8.25184C55.9012 8.77764 56.2167 9.61891 55.0599 9.61891C54.7445 9.40859 53.5877 8.46216 54.9548 6.46414C55.3754 6.04351 57.1631 4.57128 58.9508 6.88478C59.1611 7.30541 59.5818 7.93637 58.8457 9.30343C58.9508 10.2499 58.9508 11.0911 58.9508 11.0911L63.7881 32.0177L61.6849 29.7043L56.9528 9.40859Z" fill="#574349"/>
<path d="M20.8833 79.1289C21.5143 79.5496 21.8297 79.9702 21.8297 80.3908C21.8297 80.6011 21.7246 80.9166 21.4091 81.3373L17.3079 87.5416V91.117C17.3079 91.4325 17.3079 91.6428 17.3079 91.748C17.3079 91.8531 17.2027 92.0635 17.0976 92.2738C16.9924 92.4841 16.7821 92.5893 16.5718 92.6944C16.3615 92.7996 16.046 92.7996 15.6254 92.7996C15.2047 92.7996 14.8892 92.7996 14.6789 92.6944C14.4686 92.5893 14.2583 92.4841 14.1531 92.2738C14.048 92.0635 14.048 91.9583 13.9428 91.748C13.9428 91.6428 13.9428 91.4325 13.9428 91.117V87.5416L9.94678 81.4424C9.6313 81.0218 9.52615 80.7063 9.52615 80.496C9.52615 80.0754 9.84162 79.7599 10.3674 79.3392C10.8932 78.9186 11.3138 78.8134 11.5242 78.8134C11.7345 78.8134 11.9448 78.8134 12.05 78.9186C12.2603 79.0238 12.4706 79.3392 12.6809 79.6547L15.5202 84.2817L18.3595 79.6547C18.5698 79.2341 18.7801 79.0238 18.9904 78.9186C19.2008 78.8134 19.4111 78.7083 19.6214 78.7083C19.9369 78.7083 20.3575 78.8134 20.8833 79.1289Z" fill="#C84577"/>
<path d="M28.7702 79.865L33.8178 90.3809C34.0282 90.8016 34.1333 91.117 34.1333 91.3274C34.1333 91.748 33.8178 92.1686 33.0817 92.5893C32.6611 92.7996 32.3456 92.9047 32.1353 92.9047C31.925 92.9047 31.7147 92.7996 31.5044 92.6944C31.294 92.5893 31.1889 92.4841 31.1889 92.3789C31.0837 92.2738 30.9786 92.0635 30.8734 91.8531L29.927 89.8551H24.669L23.7226 91.8531C23.6174 92.0635 23.5123 92.2738 23.4071 92.3789C23.302 92.4841 23.1968 92.5893 23.0916 92.6944C22.9865 92.7996 22.7762 92.9047 22.4607 92.9047C22.1452 92.9047 21.9349 92.7996 21.5143 92.5893C20.7781 92.2738 20.4627 91.8532 20.4627 91.4325C20.4627 91.2222 20.5678 90.9067 20.7781 90.4861L25.8258 79.9702C25.9309 79.6547 26.1412 79.4444 26.4567 79.2341C26.7722 79.0238 26.9825 78.9186 27.298 78.9186C27.9289 78.9186 28.4547 79.2341 28.7702 79.865ZM27.298 84.3869L26.0361 87.0158H28.5599L27.298 84.3869Z" fill="#C84577"/>
<path d="M46.5421 90.3809C46.7524 90.8016 46.8575 91.117 46.8575 91.3274C46.8575 91.8531 46.4369 92.1686 45.7008 92.4841C45.2802 92.6944 44.9647 92.7996 44.7544 92.7996C44.5441 92.7996 44.3337 92.6944 44.1234 92.5893C44.0183 92.4841 43.8079 92.3789 43.8079 92.2738C43.7028 92.0635 43.177 90.9067 42.3357 88.9087H41.8099H39.3913V91.0119C39.3913 91.3274 39.3913 91.5377 39.3913 91.6428C39.3913 91.748 39.2861 91.9583 39.181 92.1686C38.9706 92.4841 38.55 92.6944 37.7087 92.6944C36.8675 92.6944 36.3417 92.4841 36.2365 91.9583C36.1313 91.748 36.1313 91.4325 36.1313 91.0119V80.6012C36.1313 80.2857 36.1313 80.0754 36.1313 79.9702C36.1313 79.865 36.2365 79.6547 36.3417 79.4444C36.552 79.1289 36.9726 78.9186 37.8139 78.9186H41.8099C42.8615 78.9186 43.9131 79.3392 44.9647 80.0754C45.4905 80.496 45.9111 81.0218 46.2266 81.6527C46.5421 82.2837 46.7524 83.0198 46.7524 83.8611C46.7524 85.2281 46.3318 86.49 45.3853 87.3313C45.4905 88.0674 45.9111 89.119 46.5421 90.3809ZM39.3913 85.5436H41.8099C42.1254 85.5436 42.546 85.4385 42.8615 85.123C43.177 84.8075 43.3873 84.3869 43.3873 83.8611C43.3873 83.3353 43.177 82.9146 42.8615 82.5992C42.546 82.2837 42.1254 82.1785 41.7048 82.1785H39.3913V85.5436Z" fill="#C84577"/>
<path d="M57.5838 79.4444C57.6889 79.2341 57.8992 79.1289 58.1095 79.0238C58.3199 78.9186 58.6353 78.9186 58.9508 78.9186C59.2663 78.9186 59.5818 78.9186 59.7921 79.0238C60.0024 79.1289 60.2127 79.1289 60.3179 79.2341C60.423 79.3392 60.5282 79.4444 60.5282 79.6547C60.6334 79.865 60.6334 80.1805 60.6334 80.6012V91.0119C60.6334 91.3274 60.6334 91.5377 60.6334 91.6428C60.6334 91.748 60.5282 91.9583 60.423 92.1686C60.2127 92.4841 59.7921 92.6944 58.9508 92.6944C58.425 92.6944 58.1095 92.6944 57.8992 92.5893C57.6889 92.4841 57.5838 92.3789 57.4786 92.2738C54.6393 88.4881 52.8516 86.0694 52.0103 84.9127V91.117C52.0103 91.4325 52.0103 91.6428 52.0103 91.748C52.0103 91.8531 51.9052 92.0635 51.8 92.2738C51.5897 92.5893 51.1691 92.7996 50.3278 92.7996C49.5917 92.7996 49.0659 92.5893 48.9607 92.2738C48.8556 92.0635 48.8556 91.9583 48.7504 91.748C48.7504 91.6428 48.7504 91.3274 48.7504 91.117V80.6012C48.7504 80.0754 48.8556 79.7599 48.9607 79.5496C49.0659 79.3392 49.2762 79.2341 49.4865 79.1289C49.6968 79.0238 50.0123 79.0238 50.433 79.0238C50.8536 79.0238 51.0639 79.0238 51.2742 79.1289C51.4845 79.2341 51.6949 79.2341 51.6949 79.3392C51.6949 79.3392 51.9052 79.5496 52.1155 79.865C54.7445 83.4404 56.427 85.8591 57.3734 87.0158V80.6012C57.3734 80.0754 57.3734 79.6547 57.5838 79.4444Z" fill="#C84577"/>
<path d="M63.052 80.6012C63.052 80.2857 63.052 80.0754 63.052 79.9702C63.052 79.865 63.1572 79.6547 63.2623 79.4444C63.4727 79.1289 63.8933 78.9186 64.7346 78.9186C65.5758 78.9186 66.1016 79.1289 66.3119 79.6547C66.4171 79.865 66.4171 80.1805 66.4171 80.6012V91.117C66.4171 91.4325 66.4171 91.6428 66.4171 91.748C66.4171 91.8531 66.3119 92.0635 66.2068 92.2738C65.9965 92.5893 65.5758 92.7996 64.7346 92.7996C63.8933 92.7996 63.3675 92.5893 63.2623 92.0635C63.1572 91.8532 63.1572 91.5377 63.1572 91.117V80.6012H63.052Z" fill="#C84577"/>
<path d="M77.7743 78.9186C78.0897 78.9186 78.3001 78.9186 78.4052 78.9186C78.5104 78.9186 78.7207 79.0238 78.931 79.1289C79.1413 79.2341 79.2465 79.4444 79.3516 79.6547C79.3516 79.865 79.3516 80.1805 79.3516 80.6012C79.3516 81.0218 79.3516 81.3373 79.2465 81.5476C79.1413 81.7579 79.0362 81.9682 78.8259 82.0734C78.6155 82.1785 78.5104 82.1785 78.3001 82.2837C78.0897 82.3888 77.9846 82.2837 77.6691 82.2837H71.9905V84.1766H75.6711C75.9866 84.1766 76.1969 84.1766 76.302 84.1766C76.4072 84.1766 76.6175 84.2817 76.8278 84.3869C77.1433 84.5972 77.3536 85.123 77.3536 85.8591C77.3536 86.7004 77.1433 87.2262 76.6175 87.4365C76.4072 87.5416 76.0917 87.5416 75.6711 87.5416H71.9905V91.117C71.9905 91.4325 71.9905 91.6428 71.9905 91.748C71.9905 91.8531 71.8854 92.0635 71.7802 92.2738C71.5699 92.5893 71.1493 92.7996 70.308 92.7996C69.4667 92.7996 68.9409 92.5893 68.8358 92.0635C68.7306 91.8532 68.7306 91.5377 68.7306 91.117V80.6012C68.7306 79.9702 68.8358 79.5496 69.0461 79.3392C69.2564 79.1289 69.677 79.0238 70.4131 79.0238H77.7743V78.9186Z" fill="#C84577"/>
<path d="M92.3913 79.1289C93.0223 79.5496 93.3378 79.9702 93.3378 80.3908C93.3378 80.6011 93.2326 80.9166 92.9171 81.3373L88.8159 87.5416V91.117C88.8159 91.4325 88.8159 91.6428 88.8159 91.748C88.8159 91.8531 88.7108 92.0635 88.6056 92.2738C88.5005 92.4841 88.2902 92.5893 88.0798 92.6944C87.8695 92.7996 87.554 92.7996 87.1334 92.7996C86.7128 92.7996 86.3973 92.7996 86.187 92.6944C85.9767 92.5893 85.7663 92.4841 85.6612 92.2738C85.556 92.0635 85.4509 91.9583 85.4509 91.748C85.4509 91.5377 85.4509 91.4325 85.4509 91.117V87.5416L81.4548 81.4424C81.1393 81.0218 81.0342 80.7063 81.0342 80.496C81.0342 80.0754 81.3497 79.7599 81.8755 79.3392C82.4013 78.9186 82.8219 78.8134 83.0322 78.8134C83.2425 78.8134 83.4528 78.8134 83.558 78.9186C83.7683 79.0238 83.9786 79.3392 84.189 79.6547L87.0282 84.2817L89.8675 79.6547C90.0779 79.2341 90.2882 79.0238 90.4985 78.9186C90.7088 78.8134 90.9191 78.7083 91.1294 78.7083C91.4449 78.7083 91.8656 78.8134 92.3913 79.1289Z" fill="#C84577"/>
<path d="M1.74439 98.6885C2.05987 98.4781 2.27018 98.4781 2.58566 98.4781C2.90114 98.4781 3.11145 98.5833 3.42693 98.6885C3.63725 98.7936 3.95273 98.8988 4.05788 99.1091C4.16304 99.2143 4.16304 99.3194 4.16304 99.4246C4.16304 99.5297 4.16304 99.6349 4.05788 99.7401C3.95273 99.8452 3.84757 99.8452 3.74241 99.8452C3.63725 99.8452 3.53209 99.8452 3.42693 99.7401C3.32177 99.6349 3.21661 99.5297 3.0063 99.4246C2.90114 99.3194 2.69082 99.3194 2.58566 99.3194C2.37534 99.3194 2.27018 99.3194 2.05987 99.4246C1.95471 99.5297 1.74439 99.5297 1.63923 99.7401C1.53407 99.9504 1.53407 99.9504 1.42891 100.161C1.32375 100.371 1.32375 100.476 1.32375 100.581C1.32375 100.792 1.32375 100.897 1.42891 101.107C1.53407 101.212 1.53407 101.423 1.63923 101.528C1.74439 101.633 1.84955 101.738 2.05987 101.843C2.16502 101.948 2.37534 101.948 2.58566 101.948C2.79598 101.948 2.90114 101.948 3.0063 101.843C3.11145 101.738 3.32177 101.738 3.42693 101.528C3.53209 101.423 3.63725 101.423 3.74241 101.423C3.84757 101.423 3.95273 101.423 4.05788 101.528C4.16304 101.633 4.16304 101.738 4.16304 101.843C4.16304 101.948 4.16304 102.054 4.05788 102.159C3.84757 102.369 3.63725 102.474 3.42693 102.579C3.21661 102.685 2.90114 102.79 2.58566 102.79C2.27018 102.79 2.05987 102.685 1.74439 102.579C1.53407 102.474 1.32375 102.369 1.11344 102.159C0.903118 101.948 0.79796 101.738 0.692801 101.528C0.587642 101.212 0.482483 100.897 0.482483 100.581C0.482483 100.476 0.482483 100.266 0.482483 100.161C0.482483 100.056 0.587642 99.8452 0.587642 99.7401C0.692801 99.5297 0.79796 99.2143 1.00828 99.1091C1.32375 98.8988 1.53407 98.7936 1.74439 98.6885Z" fill="#574349"/>
<path d="M12.7861 101.948C12.8912 102.054 12.8912 102.159 12.8912 102.264C12.8912 102.369 12.7861 102.474 12.7861 102.579C12.6809 102.685 12.5758 102.685 12.4706 102.685C12.3654 102.685 12.2603 102.579 12.1551 102.579L11.1035 101.423H10.3674V102.159C10.3674 102.264 10.3674 102.369 10.2623 102.474C10.1571 102.685 10.0519 102.685 9.94678 102.685C9.84162 102.685 9.73646 102.685 9.6313 102.579C9.52615 102.474 9.52615 102.369 9.52615 102.264V99.004C9.52615 98.8988 9.52615 98.7936 9.6313 98.6885C9.73646 98.5833 9.84162 98.5833 9.94678 98.5833H11.419C11.6293 98.5833 11.8396 98.5833 11.9448 98.6885C12.1551 98.7936 12.2603 98.8988 12.3654 99.004C12.4706 99.1091 12.5758 99.3194 12.6809 99.5297C12.7861 99.7401 12.7861 99.8452 12.7861 100.056C12.7861 100.266 12.7861 100.476 12.6809 100.581C12.5758 100.792 12.4706 100.897 12.3654 101.002L12.2603 101.107L12.1551 101.212L12.7861 101.948ZM10.3674 100.581H11.419C11.5242 100.581 11.5242 100.581 11.6293 100.581C11.7345 100.581 11.7345 100.476 11.8396 100.476C11.8396 100.476 11.9448 100.371 11.9448 100.266C11.9448 100.161 11.9448 100.161 11.9448 100.056C11.9448 99.9504 11.9448 99.9504 11.9448 99.8452C11.9448 99.7401 11.8396 99.7401 11.8396 99.6349C11.8396 99.5297 11.7345 99.5297 11.6293 99.5297C11.5242 99.5297 11.5242 99.5297 11.419 99.5297H10.3674V100.581Z" fill="#574349"/>
<path d="M21.9349 102.054C22.0401 102.159 22.0401 102.264 21.9349 102.369C21.9349 102.474 21.8297 102.579 21.7246 102.579C21.6194 102.685 21.5143 102.685 21.4091 102.685C21.3039 102.685 21.1988 102.579 21.1988 102.474C21.1988 102.474 21.1988 102.369 21.0936 102.369C21.0936 102.264 20.9885 102.159 20.8833 102.054H18.7801C18.675 102.159 18.675 102.264 18.5698 102.369C18.5698 102.369 18.5698 102.474 18.4647 102.474C18.5698 102.579 18.4647 102.685 18.3595 102.685C18.2543 102.685 18.1492 102.685 18.044 102.685C17.9389 102.579 17.8337 102.579 17.8337 102.474C17.8337 102.369 17.8337 102.264 17.8337 102.159L19.5162 98.8988C19.5162 98.7936 19.6214 98.7936 19.7266 98.6885C19.8317 98.6885 19.8317 98.5833 19.9369 98.5833C20.042 98.5833 20.1472 98.5833 20.1472 98.6885C20.2524 98.6885 20.2524 98.7936 20.3575 98.8988L21.9349 102.054ZM20.5678 101.107L19.9369 99.8452L19.3059 101.107H20.5678Z" fill="#574349"/>
<path d="M27.929 99.4246V100.161H29.5063C29.6115 100.161 29.7167 100.161 29.8218 100.266C29.927 100.371 29.927 100.476 29.927 100.581C29.927 100.686 29.927 100.792 29.8218 100.897C29.7167 101.002 29.6115 101.002 29.5063 101.002H27.929V102.159C27.929 102.264 27.929 102.369 27.8238 102.474C27.7186 102.685 27.6135 102.685 27.5083 102.685C27.4032 102.685 27.298 102.685 27.1928 102.579C27.0877 102.474 27.0877 102.369 27.0877 102.264V99.004C27.0877 98.8988 27.0877 98.7936 27.1928 98.6885C27.298 98.5833 27.4032 98.5833 27.5083 98.5833H29.8218C29.927 98.5833 30.0321 98.5833 30.1373 98.6885C30.2424 98.7936 30.2424 98.8988 30.2424 99.004C30.2424 99.1091 30.2424 99.2143 30.1373 99.3194C30.0321 99.4246 29.927 99.4246 29.8218 99.4246H27.929Z" fill="#574349"/>
<path d="M38.2345 98.6885C38.3397 98.7936 38.3397 98.8988 38.3397 99.004C38.3397 99.1091 38.3397 99.2143 38.2345 99.3194C38.1294 99.4246 38.0242 99.4246 37.919 99.4246H37.0778V102.264C37.0778 102.369 37.0778 102.474 36.9726 102.579C36.8675 102.685 36.7623 102.685 36.6571 102.685C36.552 102.685 36.4468 102.685 36.3417 102.579C36.2365 102.474 36.2365 102.369 36.2365 102.264V99.4246H35.3952C35.2901 99.4246 35.1849 99.4246 35.0798 99.3194C34.9746 99.2143 34.9746 99.1091 34.9746 99.004C34.9746 98.8988 34.9746 98.7936 35.0798 98.6885C35.1849 98.5833 35.2901 98.5833 35.3952 98.5833H38.0242C38.0242 98.5833 38.1294 98.5833 38.2345 98.6885Z" fill="#574349"/>
<path d="M43.4925 98.6885C43.5976 98.5833 43.7028 98.5833 43.8079 98.5833C43.9131 98.5833 44.0183 98.5833 44.1234 98.6885C44.2286 98.7936 44.2286 98.8988 44.2286 99.004V102.264C44.2286 102.369 44.2286 102.474 44.1234 102.579C44.0183 102.685 43.9131 102.685 43.8079 102.685C43.7028 102.685 43.5976 102.685 43.4925 102.579C43.3873 102.474 43.3873 102.369 43.3873 102.264V99.004C43.3873 98.8988 43.3873 98.7936 43.4925 98.6885Z" fill="#574349"/>
<path d="M50.0123 98.5833C50.1175 98.5833 50.2226 98.5833 50.3278 98.5833C50.433 98.5833 50.5381 98.6885 50.5381 98.6885C50.7484 99.0039 50.9588 99.2143 51.1691 99.5297C51.2742 99.6349 51.3794 99.7401 51.4845 99.9504C51.5897 100.056 51.6949 100.161 51.8 100.371C51.9052 100.476 52.0103 100.581 52.1155 100.792C52.2207 100.897 52.3258 101.002 52.431 101.107V99.1091C52.431 99.0039 52.431 98.8988 52.5361 98.7936C52.6413 98.6885 52.7464 98.6885 52.8516 98.6885C52.9568 98.6885 53.0619 98.6885 53.1671 98.7936C53.2722 98.8988 53.2722 99.0039 53.2722 99.1091V102.369C53.2722 102.474 53.2722 102.579 53.1671 102.579C53.1671 102.685 53.0619 102.685 52.9568 102.79C52.8516 102.79 52.7464 102.79 52.6413 102.79C52.5361 102.79 52.431 102.685 52.431 102.685C52.2207 102.369 52.0103 102.159 51.8 101.843C51.5897 101.633 51.3794 101.317 51.1691 101.107C50.9588 100.792 50.7484 100.581 50.5381 100.371V102.369C50.5381 102.474 50.5381 102.579 50.433 102.685C50.3278 102.685 50.2226 102.685 50.1175 102.685C50.0123 102.685 49.9072 102.685 49.802 102.579C49.6968 102.474 49.6968 102.369 49.6968 102.264V99.004C49.6968 98.8988 49.6968 98.7936 49.802 98.7936C49.9072 98.7936 49.9072 98.5833 50.0123 98.5833Z" fill="#574349"/>
<path d="M59.8973 98.6885C60.1076 98.4781 60.423 98.4781 60.6334 98.4781C60.9488 98.4781 61.1592 98.5833 61.4746 98.6885C61.685 98.7936 62.0004 98.8988 62.1056 99.1091C62.2107 99.2143 62.2108 99.3194 62.2108 99.4246C62.2108 99.5297 62.2107 99.6349 62.1056 99.7401C62.0004 99.8452 61.8953 99.8452 61.7901 99.8452C61.685 99.8452 61.5798 99.8452 61.4746 99.7401C61.3695 99.6349 61.2643 99.5297 61.054 99.4246C60.8437 99.3194 60.7385 99.3194 60.6334 99.3194C60.423 99.3194 60.3179 99.3194 60.1076 99.4246C60.0024 99.5297 59.7921 99.5297 59.6869 99.7401C59.5818 99.8452 59.4766 99.9504 59.4766 100.161C59.4766 100.371 59.3715 100.476 59.3715 100.686C59.3715 100.897 59.3715 101.002 59.4766 101.212C59.5818 101.317 59.5818 101.528 59.6869 101.633C59.7921 101.738 59.8973 101.843 60.1076 101.948C60.2127 102.054 60.423 102.054 60.6334 102.054C60.9488 102.054 61.1592 101.948 61.3695 101.843V101.212C61.3695 101.107 61.3695 101.002 61.4746 100.897C61.5798 100.792 61.685 100.792 61.7901 100.792C61.8953 100.792 62.0004 100.792 62.1056 100.897C62.2107 101.002 62.2108 101.107 62.2108 101.212V102.054C62.2108 102.159 62.2107 102.264 62.1056 102.369C61.8953 102.579 61.685 102.685 61.4746 102.79C61.2643 102.895 60.9488 103 60.6334 103C60.3179 103 60.1076 102.895 59.7921 102.79C59.5818 102.685 59.3715 102.579 59.1611 102.369C58.9508 102.159 58.8457 101.948 58.7405 101.738C58.6353 101.528 58.5302 101.212 58.5302 100.897C58.5302 100.792 58.5302 100.581 58.5302 100.476C58.5302 100.371 58.6353 100.161 58.6353 100.056C58.7405 99.8452 58.8457 99.5297 59.056 99.4246C59.3715 98.8988 59.5818 98.7936 59.8973 98.6885Z" fill="#574349"/>
<path d="M74.1989 98.6885C74.304 98.5833 74.4092 98.5833 74.5143 98.5833C74.6195 98.5833 74.7247 98.5833 74.8298 98.6885C74.935 98.7936 74.935 98.8988 74.935 99.004V101.843H76.8278C76.933 101.843 77.0382 101.843 77.1433 101.948C77.2485 102.054 77.2485 102.159 77.2485 102.264C77.2485 102.369 77.2485 102.474 77.1433 102.579C77.0382 102.685 76.933 102.685 76.8278 102.685H74.5143C74.4092 102.685 74.304 102.685 74.1989 102.579C74.0937 102.474 74.0937 102.369 74.0937 102.264V99.004C74.0937 98.8988 74.0937 98.7936 74.1989 98.6885Z" fill="#574349"/>
<path d="M83.1374 98.6885C83.4528 98.5833 83.6632 98.4781 83.9786 98.4781C84.2941 98.4781 84.5044 98.5833 84.8199 98.6885C85.0302 98.7936 85.3457 98.8988 85.4509 99.1091C85.6612 99.3194 85.7663 99.5297 85.8715 99.7401C85.9767 99.8452 85.9767 100.056 85.9767 100.161C85.9767 100.266 85.9767 100.476 85.9767 100.581C85.9767 100.897 85.8715 101.107 85.7663 101.423C85.6612 101.633 85.556 101.948 85.3457 102.054C85.1354 102.264 84.9251 102.369 84.7147 102.474C84.5044 102.579 84.189 102.685 83.8735 102.685C83.558 102.685 83.3477 102.579 83.0322 102.474C82.8219 102.369 82.5064 102.264 82.4013 102.054C82.1909 101.843 82.0858 101.633 81.9806 101.423C81.8755 101.212 81.7703 100.897 81.7703 100.581C81.7703 100.476 81.7703 100.266 81.7703 100.161C81.7703 100.056 81.8755 99.8452 81.8755 99.7401C81.9806 99.5297 82.1909 99.2143 82.2961 99.1091C82.6116 98.8988 82.8219 98.7936 83.1374 98.6885ZM82.7167 100.581C82.7167 100.792 82.7167 100.897 82.8219 101.107C82.927 101.212 82.927 101.423 83.1374 101.528C83.2425 101.633 83.3477 101.738 83.558 101.843C83.6632 101.948 83.8735 101.948 84.0838 101.948C84.2941 101.948 84.3993 101.948 84.6096 101.843C84.7147 101.738 84.9251 101.738 85.0302 101.528C85.1354 101.423 85.2405 101.317 85.3457 101.107C85.4509 101.002 85.4509 100.792 85.4509 100.581C85.4509 100.371 85.4509 100.266 85.3457 100.056C85.2405 99.9504 85.2405 99.7401 85.0302 99.6349C84.9251 99.5297 84.8199 99.4246 84.6096 99.3194C84.5044 99.2143 84.2941 99.2143 84.0838 99.2143C83.8735 99.2143 83.7683 99.2143 83.558 99.3194C83.4528 99.4246 83.2425 99.4246 83.1374 99.6349C83.0322 99.7401 82.927 99.8452 82.8219 100.056C82.7167 100.266 82.7167 100.476 82.7167 100.581Z" fill="#574349"/>
<path d="M94.0739 98.7936C94.1791 98.6885 94.179 98.5833 94.2842 98.5833C94.3894 98.5833 94.4945 98.5833 94.5997 98.5833C94.7048 98.5833 94.7048 98.6885 94.7048 98.6885L94.81 98.7936C94.81 98.7936 94.81 98.8988 94.81 99.0039C94.81 99.1091 94.81 99.1091 94.81 99.2142L93.1275 102.474C93.1275 102.579 93.0223 102.579 92.9171 102.684C92.812 102.684 92.812 102.79 92.7068 102.79C92.6017 102.79 92.4965 102.79 92.4965 102.684C92.3913 102.684 92.3914 102.579 92.2862 102.474L90.6036 99.2142C90.6036 99.1091 90.6036 99.1091 90.6036 99.0039C90.6036 98.8988 90.6036 98.8988 90.6036 98.7936C90.6036 98.6885 90.6037 98.6885 90.7088 98.6885L90.814 98.5833C90.9191 98.4781 91.0243 98.4781 91.1294 98.5833C91.2346 98.5833 91.3398 98.6885 91.3398 98.7936C91.4449 99.1091 91.6552 99.4246 91.7604 99.74C91.8656 99.8452 91.8656 99.9504 91.9707 100.161C92.0759 100.266 92.0759 100.476 92.181 100.581C92.2862 100.686 92.2862 100.897 92.3914 101.002C92.4965 101.107 92.4965 101.212 92.6017 101.317C92.7068 101.212 92.7068 101.107 92.812 101.002C92.9171 100.897 92.9171 100.686 93.0223 100.581C93.1275 100.476 93.1275 100.266 93.2326 100.161C93.3378 100.056 93.3378 99.8452 93.4429 99.74C93.7584 99.4246 93.9687 99.1091 94.0739 98.7936Z" fill="#574349"/>
<path d="M103.012 101.948C103.118 102.054 103.118 102.159 103.118 102.264C103.118 102.369 103.118 102.474 103.012 102.579C102.907 102.685 102.802 102.685 102.697 102.685H100.383C100.278 102.685 100.173 102.685 100.068 102.579C99.9628 102.474 99.9628 102.369 99.9628 102.264V99.004C99.9628 98.8988 99.9628 98.7936 100.068 98.6885C100.173 98.5833 100.278 98.5833 100.383 98.5833H102.697C102.802 98.5833 102.907 98.5833 103.012 98.6885C103.118 98.7936 103.118 98.8988 103.118 99.004C103.118 99.1091 103.118 99.2143 103.012 99.3194C102.907 99.4246 102.802 99.4246 102.697 99.4246H100.804V100.161H102.487C102.592 100.161 102.697 100.161 102.802 100.266C102.907 100.371 102.907 100.476 102.907 100.581C102.907 100.686 102.907 100.792 102.802 100.897C102.697 101.002 102.592 101.002 102.487 101.002H100.909V101.738H102.802C102.802 101.738 102.907 101.843 103.012 101.948Z" fill="#574349"/>
</svg>
